<mxfile host="Electron" agent="Mozilla/5.0 (Windows NT 10.0; Win64; x64) AppleWebKit/537.36 (KHTML, like Gecko) draw.io/25.0.2 Chrome/128.0.6613.186 Electron/32.2.5 Safari/537.36" version="25.0.2">
  <diagram name="ページ1" id="dZ3fFlYgB2ZhXWRh9Qtb">
    <mxGraphModel dx="1287" dy="814" grid="1" gridSize="10" guides="1" tooltips="1" connect="1" arrows="1" fold="1" page="1" pageScale="1" pageWidth="827" pageHeight="1169" math="0" shadow="0">
      <root>
        <mxCell id="0" />
        <mxCell id="1" parent="0" />
        <mxCell id="LFzXlZUx21gIoPj43R4C-36" value="c" style="rounded=0;whiteSpace=wrap;html=1;fontSize=24;" vertex="1" parent="1">
          <mxGeometry x="160" y="400" width="40" height="40" as="geometry" />
        </mxCell>
        <mxCell id="LFzXlZUx21gIoPj43R4C-37" value="a" style="rounded=0;whiteSpace=wrap;html=1;fontSize=24;" vertex="1" parent="1">
          <mxGeometry x="200" y="400" width="40" height="40" as="geometry" />
        </mxCell>
        <mxCell id="LFzXlZUx21gIoPj43R4C-38" value="?" style="rounded=0;whiteSpace=wrap;html=1;fontSize=24;" vertex="1" parent="1">
          <mxGeometry x="280" y="400" width="40" height="40" as="geometry" />
        </mxCell>
        <mxCell id="LFzXlZUx21gIoPj43R4C-39" value="?" style="rounded=0;whiteSpace=wrap;html=1;fontSize=24;" vertex="1" parent="1">
          <mxGeometry x="240" y="400" width="40" height="40" as="geometry" />
        </mxCell>
        <mxCell id="LFzXlZUx21gIoPj43R4C-40" value="?" style="rounded=0;whiteSpace=wrap;html=1;fontSize=24;" vertex="1" parent="1">
          <mxGeometry x="320" y="400" width="40" height="40" as="geometry" />
        </mxCell>
        <mxCell id="LFzXlZUx21gIoPj43R4C-41" value="a" style="rounded=0;whiteSpace=wrap;html=1;fontSize=24;" vertex="1" parent="1">
          <mxGeometry x="200" y="440" width="40" height="40" as="geometry" />
        </mxCell>
        <mxCell id="LFzXlZUx21gIoPj43R4C-42" value="?" style="rounded=0;whiteSpace=wrap;html=1;fontSize=24;" vertex="1" parent="1">
          <mxGeometry x="240" y="440" width="40" height="40" as="geometry" />
        </mxCell>
        <mxCell id="LFzXlZUx21gIoPj43R4C-43" value="?" style="rounded=0;whiteSpace=wrap;html=1;fontSize=24;" vertex="1" parent="1">
          <mxGeometry x="320" y="440" width="40" height="40" as="geometry" />
        </mxCell>
        <mxCell id="LFzXlZUx21gIoPj43R4C-44" value="?" style="rounded=0;whiteSpace=wrap;html=1;fontSize=24;" vertex="1" parent="1">
          <mxGeometry x="280" y="440" width="40" height="40" as="geometry" />
        </mxCell>
        <mxCell id="LFzXlZUx21gIoPj43R4C-45" value="c" style="rounded=0;whiteSpace=wrap;html=1;fontSize=24;" vertex="1" parent="1">
          <mxGeometry x="160" y="440" width="40" height="40" as="geometry" />
        </mxCell>
        <mxCell id="LFzXlZUx21gIoPj43R4C-46" value="?" style="rounded=0;whiteSpace=wrap;html=1;fontSize=24;fillColor=#ffe6cc;strokeColor=#d79b00;" vertex="1" parent="1">
          <mxGeometry x="240" y="480" width="40" height="40" as="geometry" />
        </mxCell>
        <mxCell id="LFzXlZUx21gIoPj43R4C-47" value="?" style="rounded=0;whiteSpace=wrap;html=1;fontSize=24;fillColor=#ffe6cc;strokeColor=#d79b00;" vertex="1" parent="1">
          <mxGeometry x="280" y="480" width="40" height="40" as="geometry" />
        </mxCell>
        <mxCell id="LFzXlZUx21gIoPj43R4C-48" value="o" style="rounded=0;whiteSpace=wrap;html=1;fontSize=24;fillColor=#ffe6cc;strokeColor=#d79b00;" vertex="1" parent="1">
          <mxGeometry x="160" y="480" width="40" height="40" as="geometry" />
        </mxCell>
        <mxCell id="LFzXlZUx21gIoPj43R4C-49" value="?" style="rounded=0;whiteSpace=wrap;html=1;fontSize=24;fillColor=#ffe6cc;strokeColor=#d79b00;" vertex="1" parent="1">
          <mxGeometry x="320" y="480" width="40" height="40" as="geometry" />
        </mxCell>
        <mxCell id="LFzXlZUx21gIoPj43R4C-50" value="c" style="rounded=0;whiteSpace=wrap;html=1;fontSize=24;fillColor=#ffe6cc;strokeColor=#d79b00;" vertex="1" parent="1">
          <mxGeometry x="200" y="480" width="40" height="40" as="geometry" />
        </mxCell>
        <mxCell id="LFzXlZUx21gIoPj43R4C-51" value="?" style="rounded=0;whiteSpace=wrap;html=1;fontSize=24;" vertex="1" parent="1">
          <mxGeometry x="280" y="520" width="40" height="40" as="geometry" />
        </mxCell>
        <mxCell id="LFzXlZUx21gIoPj43R4C-52" value="?" style="rounded=0;whiteSpace=wrap;html=1;fontSize=24;" vertex="1" parent="1">
          <mxGeometry x="320" y="520" width="40" height="40" as="geometry" />
        </mxCell>
        <mxCell id="LFzXlZUx21gIoPj43R4C-53" value="c" style="rounded=0;whiteSpace=wrap;html=1;fontSize=24;" vertex="1" parent="1">
          <mxGeometry x="200" y="520" width="40" height="40" as="geometry" />
        </mxCell>
        <mxCell id="LFzXlZUx21gIoPj43R4C-54" value="a" style="rounded=0;whiteSpace=wrap;html=1;fontSize=24;" vertex="1" parent="1">
          <mxGeometry x="160" y="520" width="40" height="40" as="geometry" />
        </mxCell>
        <mxCell id="LFzXlZUx21gIoPj43R4C-55" value="?" style="rounded=0;whiteSpace=wrap;html=1;fontSize=24;" vertex="1" parent="1">
          <mxGeometry x="240" y="520" width="40" height="40" as="geometry" />
        </mxCell>
        <mxCell id="LFzXlZUx21gIoPj43R4C-56" value="?" style="rounded=0;whiteSpace=wrap;html=1;fontSize=24;" vertex="1" parent="1">
          <mxGeometry x="320" y="560" width="40" height="40" as="geometry" />
        </mxCell>
        <mxCell id="LFzXlZUx21gIoPj43R4C-57" value="a" style="rounded=0;whiteSpace=wrap;html=1;fontSize=24;" vertex="1" parent="1">
          <mxGeometry x="160" y="560" width="40" height="40" as="geometry" />
        </mxCell>
        <mxCell id="LFzXlZUx21gIoPj43R4C-58" value="?" style="rounded=0;whiteSpace=wrap;html=1;fontSize=24;" vertex="1" parent="1">
          <mxGeometry x="240" y="560" width="40" height="40" as="geometry" />
        </mxCell>
        <mxCell id="LFzXlZUx21gIoPj43R4C-59" value="o" style="rounded=0;whiteSpace=wrap;html=1;fontSize=24;" vertex="1" parent="1">
          <mxGeometry x="200" y="560" width="40" height="40" as="geometry" />
        </mxCell>
        <mxCell id="LFzXlZUx21gIoPj43R4C-60" value="?" style="rounded=0;whiteSpace=wrap;html=1;fontSize=24;" vertex="1" parent="1">
          <mxGeometry x="280" y="560" width="40" height="40" as="geometry" />
        </mxCell>
        <mxCell id="LFzXlZUx21gIoPj43R4C-66" value="0" style="rounded=0;whiteSpace=wrap;html=1;fontSize=24;fillColor=#f5f5f5;fontColor=#333333;strokeColor=#666666;" vertex="1" parent="1">
          <mxGeometry x="120" y="400" width="40" height="40" as="geometry" />
        </mxCell>
        <mxCell id="LFzXlZUx21gIoPj43R4C-67" value="1" style="rounded=0;whiteSpace=wrap;html=1;fontSize=24;fillColor=#f5f5f5;fontColor=#333333;strokeColor=#666666;" vertex="1" parent="1">
          <mxGeometry x="120" y="440" width="40" height="40" as="geometry" />
        </mxCell>
        <mxCell id="LFzXlZUx21gIoPj43R4C-68" value="2" style="rounded=0;whiteSpace=wrap;html=1;fontSize=24;fillColor=#f5f5f5;fontColor=#333333;strokeColor=#666666;" vertex="1" parent="1">
          <mxGeometry x="120" y="480" width="40" height="40" as="geometry" />
        </mxCell>
        <mxCell id="LFzXlZUx21gIoPj43R4C-69" value="3" style="rounded=0;whiteSpace=wrap;html=1;fontSize=24;fillColor=#f5f5f5;fontColor=#333333;strokeColor=#666666;" vertex="1" parent="1">
          <mxGeometry x="120" y="520" width="40" height="40" as="geometry" />
        </mxCell>
        <mxCell id="LFzXlZUx21gIoPj43R4C-70" value="4" style="rounded=0;whiteSpace=wrap;html=1;fontSize=24;fillColor=#f5f5f5;fontColor=#333333;strokeColor=#666666;" vertex="1" parent="1">
          <mxGeometry x="120" y="560" width="40" height="40" as="geometry" />
        </mxCell>
        <mxCell id="LFzXlZUx21gIoPj43R4C-71" value="cacao" style="text;html=1;align=center;verticalAlign=middle;whiteSpace=wrap;rounded=0;fontSize=24;" vertex="1" parent="1">
          <mxGeometry x="420" y="1050" width="80" height="30" as="geometry" />
        </mxCell>
        <mxCell id="LFzXlZUx21gIoPj43R4C-72" value="" style="shape=flexArrow;endArrow=classic;html=1;rounded=0;" edge="1" parent="1">
          <mxGeometry width="50" height="50" relative="1" as="geometry">
            <mxPoint x="160" y="50" as="sourcePoint" />
            <mxPoint x="160" y="110" as="targetPoint" />
          </mxGeometry>
        </mxCell>
        <mxCell id="LFzXlZUx21gIoPj43R4C-74" value="右巡回シフト" style="text;html=1;align=center;verticalAlign=middle;whiteSpace=wrap;rounded=0;fontSize=24;" vertex="1" parent="1">
          <mxGeometry x="190" y="350" width="150" height="30" as="geometry" />
        </mxCell>
        <mxCell id="LFzXlZUx21gIoPj43R4C-76" value="" style="shape=flexArrow;endArrow=classic;html=1;rounded=0;" edge="1" parent="1">
          <mxGeometry width="50" height="50" relative="1" as="geometry">
            <mxPoint x="158.82" y="610" as="sourcePoint" />
            <mxPoint x="158.82" y="670" as="targetPoint" />
          </mxGeometry>
        </mxCell>
        <mxCell id="LFzXlZUx21gIoPj43R4C-78" value="最左列でソート" style="text;html=1;align=center;verticalAlign=middle;whiteSpace=wrap;rounded=0;fontSize=24;" vertex="1" parent="1">
          <mxGeometry x="190" y="625" width="170" height="30" as="geometry" />
        </mxCell>
        <mxCell id="LFzXlZUx21gIoPj43R4C-79" value="c" style="rounded=0;whiteSpace=wrap;html=1;fontSize=24;fillColor=#ffe6cc;strokeColor=#d79b00;" vertex="1" parent="1">
          <mxGeometry x="160" y="200" width="40" height="40" as="geometry" />
        </mxCell>
        <mxCell id="LFzXlZUx21gIoPj43R4C-80" value="a" style="rounded=0;whiteSpace=wrap;html=1;fontSize=24;" vertex="1" parent="1">
          <mxGeometry x="160" y="120" width="40" height="40" as="geometry" />
        </mxCell>
        <mxCell id="LFzXlZUx21gIoPj43R4C-81" value="?" style="rounded=0;whiteSpace=wrap;html=1;fontSize=24;" vertex="1" parent="1">
          <mxGeometry x="280" y="160" width="40" height="40" as="geometry" />
        </mxCell>
        <mxCell id="LFzXlZUx21gIoPj43R4C-82" value="?" style="rounded=0;whiteSpace=wrap;html=1;fontSize=24;fillColor=#ffe6cc;strokeColor=#d79b00;" vertex="1" parent="1">
          <mxGeometry x="240" y="200" width="40" height="40" as="geometry" />
        </mxCell>
        <mxCell id="LFzXlZUx21gIoPj43R4C-83" value="o" style="rounded=0;whiteSpace=wrap;html=1;fontSize=24;fillColor=#ffe6cc;strokeColor=#d79b00;" vertex="1" parent="1">
          <mxGeometry x="320" y="200" width="40" height="40" as="geometry" />
        </mxCell>
        <mxCell id="LFzXlZUx21gIoPj43R4C-84" value="?" style="rounded=0;whiteSpace=wrap;html=1;fontSize=24;" vertex="1" parent="1">
          <mxGeometry x="200" y="120" width="40" height="40" as="geometry" />
        </mxCell>
        <mxCell id="LFzXlZUx21gIoPj43R4C-85" value="?" style="rounded=0;whiteSpace=wrap;html=1;fontSize=24;" vertex="1" parent="1">
          <mxGeometry x="240" y="120" width="40" height="40" as="geometry" />
        </mxCell>
        <mxCell id="LFzXlZUx21gIoPj43R4C-86" value="a" style="rounded=0;whiteSpace=wrap;html=1;fontSize=24;" vertex="1" parent="1">
          <mxGeometry x="320" y="280" width="40" height="40" as="geometry" />
        </mxCell>
        <mxCell id="LFzXlZUx21gIoPj43R4C-87" value="?" style="rounded=0;whiteSpace=wrap;html=1;fontSize=24;" vertex="1" parent="1">
          <mxGeometry x="280" y="280" width="40" height="40" as="geometry" />
        </mxCell>
        <mxCell id="LFzXlZUx21gIoPj43R4C-88" value="o" style="rounded=0;whiteSpace=wrap;html=1;fontSize=24;" vertex="1" parent="1">
          <mxGeometry x="160" y="280" width="40" height="40" as="geometry" />
        </mxCell>
        <mxCell id="LFzXlZUx21gIoPj43R4C-89" value="?" style="rounded=0;whiteSpace=wrap;html=1;fontSize=24;" vertex="1" parent="1">
          <mxGeometry x="240" y="160" width="40" height="40" as="geometry" />
        </mxCell>
        <mxCell id="LFzXlZUx21gIoPj43R4C-90" value="?" style="rounded=0;whiteSpace=wrap;html=1;fontSize=24;fillColor=#ffe6cc;strokeColor=#d79b00;" vertex="1" parent="1">
          <mxGeometry x="280" y="200" width="40" height="40" as="geometry" />
        </mxCell>
        <mxCell id="LFzXlZUx21gIoPj43R4C-91" value="a" style="rounded=0;whiteSpace=wrap;html=1;fontSize=24;" vertex="1" parent="1">
          <mxGeometry x="160" y="160" width="40" height="40" as="geometry" />
        </mxCell>
        <mxCell id="LFzXlZUx21gIoPj43R4C-92" value="c" style="rounded=0;whiteSpace=wrap;html=1;fontSize=24;" vertex="1" parent="1">
          <mxGeometry x="320" y="120" width="40" height="40" as="geometry" />
        </mxCell>
        <mxCell id="LFzXlZUx21gIoPj43R4C-93" value="?" style="rounded=0;whiteSpace=wrap;html=1;fontSize=24;" vertex="1" parent="1">
          <mxGeometry x="200" y="160" width="40" height="40" as="geometry" />
        </mxCell>
        <mxCell id="LFzXlZUx21gIoPj43R4C-94" value="?" style="rounded=0;whiteSpace=wrap;html=1;fontSize=24;" vertex="1" parent="1">
          <mxGeometry x="280" y="240" width="40" height="40" as="geometry" />
        </mxCell>
        <mxCell id="LFzXlZUx21gIoPj43R4C-95" value="a" style="rounded=0;whiteSpace=wrap;html=1;fontSize=24;" vertex="1" parent="1">
          <mxGeometry x="320" y="240" width="40" height="40" as="geometry" />
        </mxCell>
        <mxCell id="LFzXlZUx21gIoPj43R4C-96" value="?" style="rounded=0;whiteSpace=wrap;html=1;fontSize=24;fillColor=#ffe6cc;strokeColor=#d79b00;" vertex="1" parent="1">
          <mxGeometry x="200" y="200" width="40" height="40" as="geometry" />
        </mxCell>
        <mxCell id="LFzXlZUx21gIoPj43R4C-97" value="c" style="rounded=0;whiteSpace=wrap;html=1;fontSize=24;" vertex="1" parent="1">
          <mxGeometry x="160" y="240" width="40" height="40" as="geometry" />
        </mxCell>
        <mxCell id="LFzXlZUx21gIoPj43R4C-98" value="?" style="rounded=0;whiteSpace=wrap;html=1;fontSize=24;" vertex="1" parent="1">
          <mxGeometry x="240" y="240" width="40" height="40" as="geometry" />
        </mxCell>
        <mxCell id="LFzXlZUx21gIoPj43R4C-99" value="c" style="rounded=0;whiteSpace=wrap;html=1;fontSize=24;" vertex="1" parent="1">
          <mxGeometry x="320" y="160" width="40" height="40" as="geometry" />
        </mxCell>
        <mxCell id="LFzXlZUx21gIoPj43R4C-100" value="?" style="rounded=0;whiteSpace=wrap;html=1;fontSize=24;" vertex="1" parent="1">
          <mxGeometry x="200" y="240" width="40" height="40" as="geometry" />
        </mxCell>
        <mxCell id="LFzXlZUx21gIoPj43R4C-101" value="?" style="rounded=0;whiteSpace=wrap;html=1;fontSize=24;" vertex="1" parent="1">
          <mxGeometry x="240" y="280" width="40" height="40" as="geometry" />
        </mxCell>
        <mxCell id="LFzXlZUx21gIoPj43R4C-102" value="?" style="rounded=0;whiteSpace=wrap;html=1;fontSize=24;" vertex="1" parent="1">
          <mxGeometry x="200" y="280" width="40" height="40" as="geometry" />
        </mxCell>
        <mxCell id="LFzXlZUx21gIoPj43R4C-103" value="?" style="rounded=0;whiteSpace=wrap;html=1;fontSize=24;" vertex="1" parent="1">
          <mxGeometry x="280" y="120" width="40" height="40" as="geometry" />
        </mxCell>
        <mxCell id="LFzXlZUx21gIoPj43R4C-104" value="0" style="rounded=0;whiteSpace=wrap;html=1;fontSize=24;fillColor=#f5f5f5;fontColor=#333333;strokeColor=#666666;" vertex="1" parent="1">
          <mxGeometry x="120" y="120" width="40" height="40" as="geometry" />
        </mxCell>
        <mxCell id="LFzXlZUx21gIoPj43R4C-105" value="1" style="rounded=0;whiteSpace=wrap;html=1;fontSize=24;fillColor=#f5f5f5;fontColor=#333333;strokeColor=#666666;" vertex="1" parent="1">
          <mxGeometry x="120" y="160" width="40" height="40" as="geometry" />
        </mxCell>
        <mxCell id="LFzXlZUx21gIoPj43R4C-106" value="2" style="rounded=0;whiteSpace=wrap;html=1;fontSize=24;fillColor=#f5f5f5;strokeColor=#666666;fontColor=#333333;" vertex="1" parent="1">
          <mxGeometry x="120" y="200" width="40" height="40" as="geometry" />
        </mxCell>
        <mxCell id="LFzXlZUx21gIoPj43R4C-107" value="3" style="rounded=0;whiteSpace=wrap;html=1;fontSize=24;fillColor=#f5f5f5;fontColor=#333333;strokeColor=#666666;" vertex="1" parent="1">
          <mxGeometry x="120" y="240" width="40" height="40" as="geometry" />
        </mxCell>
        <mxCell id="LFzXlZUx21gIoPj43R4C-108" value="4" style="rounded=0;whiteSpace=wrap;html=1;fontSize=24;fillColor=#f5f5f5;fontColor=#333333;strokeColor=#666666;" vertex="1" parent="1">
          <mxGeometry x="120" y="280" width="40" height="40" as="geometry" />
        </mxCell>
        <mxCell id="LFzXlZUx21gIoPj43R4C-109" value="" style="shape=flexArrow;endArrow=classic;html=1;rounded=0;" edge="1" parent="1">
          <mxGeometry width="50" height="50" relative="1" as="geometry">
            <mxPoint x="160" y="890" as="sourcePoint" />
            <mxPoint x="160" y="950" as="targetPoint" />
          </mxGeometry>
        </mxCell>
        <mxCell id="LFzXlZUx21gIoPj43R4C-112" value="ccoaa2" style="text;html=1;align=center;verticalAlign=middle;whiteSpace=wrap;rounded=0;fontSize=24;" vertex="1" parent="1">
          <mxGeometry x="120" y="10" width="80" height="30" as="geometry" />
        </mxCell>
        <mxCell id="LFzXlZUx21gIoPj43R4C-113" value="初期状態" style="text;html=1;align=center;verticalAlign=middle;whiteSpace=wrap;rounded=0;fontSize=24;" vertex="1" parent="1">
          <mxGeometry x="200" y="70" width="100" height="30" as="geometry" />
        </mxCell>
        <mxCell id="LFzXlZUx21gIoPj43R4C-115" value="" style="shape=flexArrow;endArrow=classic;html=1;rounded=0;" edge="1" parent="1">
          <mxGeometry width="50" height="50" relative="1" as="geometry">
            <mxPoint x="158.82" y="330" as="sourcePoint" />
            <mxPoint x="158.82" y="390" as="targetPoint" />
          </mxGeometry>
        </mxCell>
        <mxCell id="LFzXlZUx21gIoPj43R4C-116" value="a" style="rounded=0;whiteSpace=wrap;html=1;fontSize=24;" vertex="1" parent="1">
          <mxGeometry x="160" y="680" width="40" height="40" as="geometry" />
        </mxCell>
        <mxCell id="LFzXlZUx21gIoPj43R4C-117" value="c" style="rounded=0;whiteSpace=wrap;html=1;fontSize=24;" vertex="1" parent="1">
          <mxGeometry x="200" y="680" width="40" height="40" as="geometry" />
        </mxCell>
        <mxCell id="LFzXlZUx21gIoPj43R4C-118" value="?" style="rounded=0;whiteSpace=wrap;html=1;fontSize=24;" vertex="1" parent="1">
          <mxGeometry x="280" y="680" width="40" height="40" as="geometry" />
        </mxCell>
        <mxCell id="LFzXlZUx21gIoPj43R4C-119" value="?" style="rounded=0;whiteSpace=wrap;html=1;fontSize=24;" vertex="1" parent="1">
          <mxGeometry x="240" y="680" width="40" height="40" as="geometry" />
        </mxCell>
        <mxCell id="LFzXlZUx21gIoPj43R4C-120" value="c" style="rounded=0;whiteSpace=wrap;html=1;fontSize=24;" vertex="1" parent="1">
          <mxGeometry x="320" y="680" width="40" height="40" as="geometry" />
        </mxCell>
        <mxCell id="LFzXlZUx21gIoPj43R4C-121" value="o" style="rounded=0;whiteSpace=wrap;html=1;fontSize=24;" vertex="1" parent="1">
          <mxGeometry x="200" y="720" width="40" height="40" as="geometry" />
        </mxCell>
        <mxCell id="LFzXlZUx21gIoPj43R4C-122" value="?" style="rounded=0;whiteSpace=wrap;html=1;fontSize=24;" vertex="1" parent="1">
          <mxGeometry x="240" y="720" width="40" height="40" as="geometry" />
        </mxCell>
        <mxCell id="LFzXlZUx21gIoPj43R4C-123" value="c" style="rounded=0;whiteSpace=wrap;html=1;fontSize=24;" vertex="1" parent="1">
          <mxGeometry x="320" y="720" width="40" height="40" as="geometry" />
        </mxCell>
        <mxCell id="LFzXlZUx21gIoPj43R4C-124" value="?" style="rounded=0;whiteSpace=wrap;html=1;fontSize=24;" vertex="1" parent="1">
          <mxGeometry x="280" y="720" width="40" height="40" as="geometry" />
        </mxCell>
        <mxCell id="LFzXlZUx21gIoPj43R4C-125" value="a" style="rounded=0;whiteSpace=wrap;html=1;fontSize=24;" vertex="1" parent="1">
          <mxGeometry x="160" y="720" width="40" height="40" as="geometry" />
        </mxCell>
        <mxCell id="LFzXlZUx21gIoPj43R4C-126" value="?" style="rounded=0;whiteSpace=wrap;html=1;fontSize=24;" vertex="1" parent="1">
          <mxGeometry x="240" y="760" width="40" height="40" as="geometry" />
        </mxCell>
        <mxCell id="LFzXlZUx21gIoPj43R4C-127" value="?" style="rounded=0;whiteSpace=wrap;html=1;fontSize=24;" vertex="1" parent="1">
          <mxGeometry x="280" y="760" width="40" height="40" as="geometry" />
        </mxCell>
        <mxCell id="LFzXlZUx21gIoPj43R4C-128" value="c" style="rounded=0;whiteSpace=wrap;html=1;fontSize=24;" vertex="1" parent="1">
          <mxGeometry x="160" y="760" width="40" height="40" as="geometry" />
        </mxCell>
        <mxCell id="LFzXlZUx21gIoPj43R4C-129" value="o" style="rounded=0;whiteSpace=wrap;html=1;fontSize=24;" vertex="1" parent="1">
          <mxGeometry x="320" y="760" width="40" height="40" as="geometry" />
        </mxCell>
        <mxCell id="LFzXlZUx21gIoPj43R4C-130" value="a" style="rounded=0;whiteSpace=wrap;html=1;fontSize=24;" vertex="1" parent="1">
          <mxGeometry x="200" y="760" width="40" height="40" as="geometry" />
        </mxCell>
        <mxCell id="LFzXlZUx21gIoPj43R4C-131" value="?" style="rounded=0;whiteSpace=wrap;html=1;fontSize=24;" vertex="1" parent="1">
          <mxGeometry x="280" y="800" width="40" height="40" as="geometry" />
        </mxCell>
        <mxCell id="LFzXlZUx21gIoPj43R4C-132" value="a" style="rounded=0;whiteSpace=wrap;html=1;fontSize=24;" vertex="1" parent="1">
          <mxGeometry x="320" y="800" width="40" height="40" as="geometry" />
        </mxCell>
        <mxCell id="LFzXlZUx21gIoPj43R4C-133" value="a" style="rounded=0;whiteSpace=wrap;html=1;fontSize=24;" vertex="1" parent="1">
          <mxGeometry x="200" y="800" width="40" height="40" as="geometry" />
        </mxCell>
        <mxCell id="LFzXlZUx21gIoPj43R4C-134" value="c" style="rounded=0;whiteSpace=wrap;html=1;fontSize=24;" vertex="1" parent="1">
          <mxGeometry x="160" y="800" width="40" height="40" as="geometry" />
        </mxCell>
        <mxCell id="LFzXlZUx21gIoPj43R4C-135" value="?" style="rounded=0;whiteSpace=wrap;html=1;fontSize=24;" vertex="1" parent="1">
          <mxGeometry x="240" y="800" width="40" height="40" as="geometry" />
        </mxCell>
        <mxCell id="LFzXlZUx21gIoPj43R4C-136" value="a" style="rounded=0;whiteSpace=wrap;html=1;fontSize=24;fillColor=#ffe6cc;strokeColor=#d79b00;" vertex="1" parent="1">
          <mxGeometry x="320" y="840" width="40" height="40" as="geometry" />
        </mxCell>
        <mxCell id="LFzXlZUx21gIoPj43R4C-137" value="o" style="rounded=0;whiteSpace=wrap;html=1;fontSize=24;fillColor=#ffe6cc;strokeColor=#d79b00;" vertex="1" parent="1">
          <mxGeometry x="160" y="840" width="40" height="40" as="geometry" />
        </mxCell>
        <mxCell id="LFzXlZUx21gIoPj43R4C-138" value="?" style="rounded=0;whiteSpace=wrap;html=1;fontSize=24;fillColor=#ffe6cc;strokeColor=#d79b00;" vertex="1" parent="1">
          <mxGeometry x="240" y="840" width="40" height="40" as="geometry" />
        </mxCell>
        <mxCell id="LFzXlZUx21gIoPj43R4C-139" value="c" style="rounded=0;whiteSpace=wrap;html=1;fontSize=24;fillColor=#ffe6cc;strokeColor=#d79b00;" vertex="1" parent="1">
          <mxGeometry x="200" y="840" width="40" height="40" as="geometry" />
        </mxCell>
        <mxCell id="LFzXlZUx21gIoPj43R4C-140" value="?" style="rounded=0;whiteSpace=wrap;html=1;fontSize=24;fillColor=#ffe6cc;strokeColor=#d79b00;" vertex="1" parent="1">
          <mxGeometry x="280" y="840" width="40" height="40" as="geometry" />
        </mxCell>
        <mxCell id="LFzXlZUx21gIoPj43R4C-141" value="0" style="rounded=0;whiteSpace=wrap;html=1;fontSize=24;fillColor=#f5f5f5;fontColor=#333333;strokeColor=#666666;" vertex="1" parent="1">
          <mxGeometry x="120" y="680" width="40" height="40" as="geometry" />
        </mxCell>
        <mxCell id="LFzXlZUx21gIoPj43R4C-142" value="1" style="rounded=0;whiteSpace=wrap;html=1;fontSize=24;fillColor=#f5f5f5;fontColor=#333333;strokeColor=#666666;" vertex="1" parent="1">
          <mxGeometry x="120" y="720" width="40" height="40" as="geometry" />
        </mxCell>
        <mxCell id="LFzXlZUx21gIoPj43R4C-143" value="2" style="rounded=0;whiteSpace=wrap;html=1;fontSize=24;fillColor=#f5f5f5;fontColor=#333333;strokeColor=#666666;" vertex="1" parent="1">
          <mxGeometry x="120" y="760" width="40" height="40" as="geometry" />
        </mxCell>
        <mxCell id="LFzXlZUx21gIoPj43R4C-144" value="3" style="rounded=0;whiteSpace=wrap;html=1;fontSize=24;fillColor=#f5f5f5;fontColor=#333333;strokeColor=#666666;" vertex="1" parent="1">
          <mxGeometry x="120" y="800" width="40" height="40" as="geometry" />
        </mxCell>
        <mxCell id="LFzXlZUx21gIoPj43R4C-145" value="4" style="rounded=0;whiteSpace=wrap;html=1;fontSize=24;fillColor=#f5f5f5;fontColor=#333333;strokeColor=#666666;" vertex="1" parent="1">
          <mxGeometry x="120" y="840" width="40" height="40" as="geometry" />
        </mxCell>
        <mxCell id="LFzXlZUx21gIoPj43R4C-147" value="0,c" style="rounded=0;whiteSpace=wrap;html=1;fontSize=24;" vertex="1" parent="1">
          <mxGeometry x="120" y="960" width="40" height="40" as="geometry" />
        </mxCell>
        <mxCell id="LFzXlZUx21gIoPj43R4C-148" value="1,c" style="rounded=0;whiteSpace=wrap;html=1;fontSize=24;" vertex="1" parent="1">
          <mxGeometry x="120" y="1000" width="40" height="40" as="geometry" />
        </mxCell>
        <mxCell id="LFzXlZUx21gIoPj43R4C-149" value="2,o" style="rounded=0;whiteSpace=wrap;html=1;fontSize=24;" vertex="1" parent="1">
          <mxGeometry x="120" y="1040" width="40" height="40" as="geometry" />
        </mxCell>
        <mxCell id="LFzXlZUx21gIoPj43R4C-150" value="3,a" style="rounded=0;whiteSpace=wrap;html=1;fontSize=24;" vertex="1" parent="1">
          <mxGeometry x="120" y="1080" width="40" height="40" as="geometry" />
        </mxCell>
        <mxCell id="LFzXlZUx21gIoPj43R4C-151" value="4,a" style="rounded=0;whiteSpace=wrap;html=1;fontSize=24;" vertex="1" parent="1">
          <mxGeometry x="120" y="1120" width="40" height="40" as="geometry" />
        </mxCell>
        <mxCell id="LFzXlZUx21gIoPj43R4C-152" value="1,c" style="rounded=0;whiteSpace=wrap;html=1;fontSize=24;" vertex="1" parent="1">
          <mxGeometry x="200" y="1080" width="40" height="40" as="geometry" />
        </mxCell>
        <mxCell id="LFzXlZUx21gIoPj43R4C-153" value="2,o" style="rounded=0;whiteSpace=wrap;html=1;fontSize=24;" vertex="1" parent="1">
          <mxGeometry x="200" y="1120" width="40" height="40" as="geometry" />
        </mxCell>
        <mxCell id="LFzXlZUx21gIoPj43R4C-154" value="3,a" style="rounded=0;whiteSpace=wrap;html=1;fontSize=24;" vertex="1" parent="1">
          <mxGeometry x="200" y="960" width="40" height="40" as="geometry" />
        </mxCell>
        <mxCell id="LFzXlZUx21gIoPj43R4C-155" value="4,a" style="rounded=0;whiteSpace=wrap;html=1;fontSize=24;" vertex="1" parent="1">
          <mxGeometry x="200" y="1000" width="40" height="40" as="geometry" />
        </mxCell>
        <mxCell id="LFzXlZUx21gIoPj43R4C-156" value="0,c" style="rounded=0;whiteSpace=wrap;html=1;fontSize=24;" vertex="1" parent="1">
          <mxGeometry x="200" y="1040" width="40" height="40" as="geometry" />
        </mxCell>
        <mxCell id="LFzXlZUx21gIoPj43R4C-157" value="2" style="rounded=0;whiteSpace=wrap;html=1;fontSize=24;fillColor=#f5f5f5;fontColor=#333333;strokeColor=#666666;" vertex="1" parent="1">
          <mxGeometry x="280" y="1000" width="40" height="40" as="geometry" />
        </mxCell>
        <mxCell id="LFzXlZUx21gIoPj43R4C-158" value="0,c" style="rounded=0;whiteSpace=wrap;html=1;fontSize=24;" vertex="1" parent="1">
          <mxGeometry x="360" y="1000" width="40" height="40" as="geometry" />
        </mxCell>
        <mxCell id="LFzXlZUx21gIoPj43R4C-159" value="3,a" style="rounded=0;whiteSpace=wrap;html=1;fontSize=24;" vertex="1" parent="1">
          <mxGeometry x="400" y="1000" width="40" height="40" as="geometry" />
        </mxCell>
        <mxCell id="LFzXlZUx21gIoPj43R4C-160" value="1,c" style="rounded=0;whiteSpace=wrap;html=1;fontSize=24;" vertex="1" parent="1">
          <mxGeometry x="440" y="1000" width="40" height="40" as="geometry" />
        </mxCell>
        <mxCell id="LFzXlZUx21gIoPj43R4C-161" value="4,a" style="rounded=0;whiteSpace=wrap;html=1;fontSize=24;" vertex="1" parent="1">
          <mxGeometry x="480" y="1000" width="40" height="40" as="geometry" />
        </mxCell>
        <mxCell id="LFzXlZUx21gIoPj43R4C-162" value="2,o" style="rounded=0;whiteSpace=wrap;html=1;fontSize=24;" vertex="1" parent="1">
          <mxGeometry x="520" y="1000" width="40" height="40" as="geometry" />
        </mxCell>
        <mxCell id="LFzXlZUx21gIoPj43R4C-163" value="" style="endArrow=classic;html=1;rounded=0;exitX=1;exitY=0.5;exitDx=0;exitDy=0;entryX=0;entryY=0.5;entryDx=0;entryDy=0;" edge="1" parent="1" source="LFzXlZUx21gIoPj43R4C-157" target="LFzXlZUx21gIoPj43R4C-158">
          <mxGeometry width="50" height="50" relative="1" as="geometry">
            <mxPoint x="380" y="930" as="sourcePoint" />
            <mxPoint x="430" y="880" as="targetPoint" />
          </mxGeometry>
        </mxCell>
      </root>
    </mxGraphModel>
  </diagram>
</mxfile>
